<svg xmlns="http://www.w3.org/2000/svg" viewBox="0 0 312.159 249.359">
  <path fill="none" stroke="#fff" stroke-linecap="square" stroke-linejoin="bevel" stroke-width=".824" d="M32.749 106.575c80.887 17.81 201.703-27.176 215.666-36.997"/>
  <path fill="none" stroke="#fff" stroke-linecap="square" stroke-linejoin="bevel" stroke-width=".772" d="M34.5 117.966c79.384 10.185 208.542-17.272 223.733-22.287"/>
  <path fill="none" stroke="#fff" stroke-linecap="square" stroke-linejoin="bevel" stroke-width=".794" d="M31.45 126.323c83.847 8.36 223.085-12.614 237.24-18.501"/>
  <path fill="#fff" stroke="#fff" stroke-linecap="square" stroke-miterlimit="2" stroke-width="18.632" d="m158.217 9.331-.23 140.029"/>
  <path fill="#fff" stroke="#fff" stroke-linecap="square" stroke-miterlimit="2" stroke-width="14.64" d="M220.612 43.601 93.86 44.663"/>
  <path fill="#fff" d="M135.593 55.044c-3.938-.469-9.158 6.155-9.546 12.486-.129 1.927.345 5.909 1.104 10.926-7.926 5.044-17.064 10.122-17.73 17.909-.73 7.123 4.293 16.79 18.064 18.068 2.113.2 4.03.191 5.749.02.814 5.31 1.3 9.487 1.133 11.377-.593 7.459-13.684 6.904-13.941 2.557 2.751.202 5.076-1.22 5.25-3.248.177-2.072-1.96-3.987-4.79-4.268-1.557-.154-2.988.222-3.997.932l-.073.042a3.349 3.349 0 0 0-.619.545c-.643.68-1.11 1.703-1.26 3.215-.534 6.24 20.112 12.34 21.165.034.175-1.653-.413-5.95-1.34-11.382 15.326-2.584 12.994-19.675-.78-21.121a17.218 17.218 0 0 0-3.114-.016 616.841 616.841 0 0 1-1.509-8.348c5.564-3.345 10.562-7.894 11.249-17.123.582-6.618-1.897-12.218-5.015-12.605zm.383 6.497c1.796.047 3.107 1.434 2.872 4.177-.258 4.725-5 8.403-10.582 12.022-.306-2.316-.476-4.185-.419-5.278.778-7.344 5.134-11.001 8.129-10.921zm-7.701 23.863c.426 2.531.892 5.2 1.363 7.886-9.33 1.535-14.526 10.658-1.96 16.219-7.45-5.827-3.06-11.413 2.712-11.89.97 5.506 1.913 10.938 2.65 15.624-1.567.253-3.374.31-5.463.114-5.22-.518-15.438-4.051-14.628-13.508.678-7.92 8.257-10.415 15.326-14.445zm3.425 12.173c.229.012.475.04.704.07 9.496.942 12.107 12.634 2.127 15.298-.814-4.666-1.826-10.025-2.83-15.368zM191.974 81.588c-2.913-.254-6.643 4.032-6.813 8.076-.06 1.232.362 3.767 1.013 6.96-5.754 3.31-12.401 6.653-12.751 11.63-.408 4.554 3.473 10.665 13.653 11.324 1.563.103 2.977.076 4.241-.053.698 3.38 1.133 6.04 1.044 7.248-.302 4.766-9.968 4.56-10.237 1.79 2.033.097 3.722-.837 3.813-2.133.093-1.323-1.518-2.521-3.61-2.668-1.152-.081-2.2.175-2.932.64-.017.009-.036.018-.052.028a2.352 2.352 0 0 0-.447.354c-.462.442-.788 1.1-.871 2.066-.28 3.989 15.06 7.646 15.612-.22.099-1.056-.413-3.79-1.195-7.247 11.257-1.824 9.225-12.703-.961-13.47-.79-.05-1.557-.043-2.298.026-.453-1.856-.889-3.657-1.265-5.31 4.044-2.198 7.647-5.157 7.985-11.054.31-4.23-1.622-7.776-3.929-7.987zm.401 4.141c1.326.01 2.318.88 2.195 2.633-.104 3.018-3.535 5.42-7.586 7.792-.268-1.474-.428-2.665-.405-3.363.44-4.695 3.586-7.079 5.796-7.062zm-5.245 15.316c.36 1.61.753 3.307 1.15 5.017-6.855 1.085-10.52 6.966-1.151 10.372-5.602-3.634-2.465-7.249 1.784-7.618.816 3.502 1.61 6.958 2.239 9.94-1.15.179-2.483.236-4.027.134-3.86-.27-11.461-2.409-11.036-8.453.355-5.062 5.9-6.74 11.04-9.392zm2.748 7.729c.17.005.351.02.52.036 7.022.493 9.161 7.925 1.849 9.738-.686-2.968-1.53-6.376-2.369-9.774z"/>
  <path fill="#fff" stroke="#fff" stroke-width=".004" d="M236.768 94.058c-4.048.737-10.423 1.9-14.168 2.58l-6.802 1.241v16.527c0 10.21-.018 16.555-.045 16.592-.037.05-.06.041-.168-.05-.364-.306-.964-.552-1.695-.691-.405-.078-.623-.095-1.454-.095-.886-.004-1.018.004-1.409.095-1.65.372-3.204 1.204-4.59 2.461-1.553 1.41-2.376 3.04-2.303 4.567.054 1.118.536 1.999 1.44 2.654 1.568 1.127 3.854 1.155 6.294.074 2.585-1.143 4.425-3.199 4.816-5.39.06-.32.068-2.544.068-16.613 0-12.947.014-16.256.06-16.289.027-.02 6.002-1.122 13.272-2.445 10.847-1.978 13.223-2.396 13.255-2.35.055.077.05 28.956-.004 29.034-.036.05-.059.045-.168-.033-.663-.479-1.368-.696-2.558-.79-.99-.074-1.754.004-2.677.274-.904.267-2.022.828-2.89 1.45-.481.348-1.331 1.094-1.672 1.475-1.981 2.211-2.226 4.718-.609 6.254.56.528 1.236.877 2.109 1.085.568.131 1.722.131 2.422-.004 2.708-.52 5.157-2.187 6.348-4.32.213-.386.454-1 .59-1.5.077-.29.082-1.171.091-18.73l.014-18.419-.1.004c-.06.004-3.417.61-7.466 1.352z"/>
  <path fill="#fff" stroke="#fff" stroke-width=".006" d="m94.006 115-.017 26.879-.256-.2c-1.097-.869-2.78-1.278-5.258-1.284-1.228 0-1.91.097-3.07.432-2.818.813-5.837 2.768-7.803 5.065-1.234 1.438-2.04 2.978-2.376 4.518-.16.734-.148 2.075.028 2.757.614 2.399 2.666 4.092 5.513 4.553.631.102 1.978.114 2.734.023 2.638-.319 5.56-1.575 7.759-3.337 2.325-1.864 3.734-3.973 4.303-6.434l.13-.546c.286-2.827.302-55.7.05-59.102 0 0 .101-.095-.033-.21-.55-.056-1.13 0-1.694 0z"/>
  <path fill="#fff" stroke="#fff" stroke-width=".003" d="M102.714 106.516c-2.812.512-7.24 1.32-9.841 1.792l-4.725.862v11.48c0 7.092-.013 11.499-.031 11.524-.026.035-.042.029-.117-.034-.253-.213-.67-.384-1.178-.48-.28-.055-.432-.066-1.01-.066-.615-.003-.706.003-.978.065-1.146.26-2.225.837-3.188 1.71-1.08.979-1.65 2.111-1.6 3.172.038.777.373 1.389 1 1.844 1.09.782 2.677.802 4.372.05 1.796-.793 3.074-2.22 3.346-3.743.04-.222.047-1.767.047-11.539 0-8.993.009-11.291.041-11.314.019-.014 4.17-.78 9.22-1.699 7.533-1.374 9.184-1.664 9.206-1.632.038.054.035 20.113-.003 20.167-.025.034-.041.031-.117-.023-.46-.333-.95-.483-1.777-.549a4.848 4.848 0 0 0-1.859.19c-.628.186-1.404.575-2.007 1.008-.335.242-.925.76-1.162 1.024-1.376 1.536-1.546 3.277-.423 4.344.389.367.859.609 1.465.754.394.091 1.196.091 1.682-.003 1.881-.361 3.582-1.52 4.41-3.001.148-.268.315-.694.41-1.041.053-.202.056-.814.063-13.01l.009-12.794-.07.003c-.04.003-2.373.424-5.185.939zM206.52 85.089l-.01 12.341-.128-.091c-.554-.4-1.402-.587-2.652-.59-.62 0-.964.044-1.549.198-1.422.373-2.944 1.271-3.936 2.325-.622.66-1.03 1.368-1.199 2.075-.08.337-.074.953.015 1.266.31 1.101 1.344 1.879 2.78 2.09.319.047.998.052 1.38.01 1.33-.145 2.804-.722 3.913-1.531 1.173-.856 1.884-1.824 2.17-2.954l.067-.25c.144-1.299.152-25.575.025-27.136 0 0 .05-.044-.017-.097-.277-.025-.57 0-.854 0z"/>
  <path fill="#fff" stroke="#fff" stroke-width=".748" d="M208.729 241.227c0-.5 2.283-6.117 5.074-12.48 10.072-22.971 9.882-26.037-2.778-44.726-6.289-9.283-11.446-19.47-16.747-33.077-2.437-6.254-5.243-13.164-6.237-15.356-.993-2.192-2.051-4.925-2.351-6.074-.488-1.866-.41-1.987.72-1.131.695.527 2.62 3.074 4.279 5.66 9.479 14.788 29.677 35.364 41.747 42.529 2.717 1.613 3.092 1.29 2.09-1.805-1.448-4.472-1.063-8.81 1.05-11.823 2.832-4.042 5.84-6.375 10.982-8.521 3.912-1.632 5.353-1.861 10.178-1.618 6.613.334 10.617 1.9 14.722 5.76 9.089 8.544 6.338 20.687-6.144 27.114-2.273 1.17-4.132 2.227-4.132 2.348 0 .122 2.026 1.248 4.501 2.504 3.253 1.65 9.605 6.983 22.9 19.229 10.118 9.32 19.603 17.747 21.076 18.725 3.581 2.379 2.66 3.47-2.92 3.46-10.636-.021-17.443-2.886-29.644-12.625-7.486-5.975-13.34-5.547-14.096 4.236l-.47 6.07-11.438 3.32c-22.164 6.436-42.362 10.384-42.362 8.28zM52.356 232.82c-.434-.74-.808-2.892-.833-4.784-.053-4.154-1.438-8.032-3.232-9.052-1.768-1.005-4.828-1.74-12.938 4.412-10.22 7.753-16.874 11.653-27.453 10.892l-7.764-.558c17.417-6.783 28.203-26.946 42.436-35.993 2.539-1.43 9.778-4.637 9.778-4.911s-.946-.891-2.102-1.372c-10.227-4.251-15.132-15.837-10.444-24.672 3.887-7.326 13.693-12.49 22.01-11.592 4.235.457 11.243 3.459 13.396 5.736 4.661 4.932 7.015 12.702 5.433 17.93-.467 1.544-.688 2.953-.492 3.132.746.68 12.139-7.975 18.867-14.334 9.559-9.034 16.91-17.532 23.299-26.935 2.953-4.346 5.649-7.902 5.99-7.902.342 0-.022 1.848-.81 4.107a703.577 703.577 0 0 0-2.74 8.035c-4.364 13.121-15.83 35.933-24.11 47.968-6.315 9.178-6.804 10.294-6.804 15.548 0 6.448 1.154 10.604 6.262 22.547 1.53 5.527 6.717 12.404 6.717 12.404-15.164-1.874-37.931-7.467-54.466-10.607z"/>
  <path fill="#fff" stroke="#fff" stroke-width=".748" d="M138.162 248.806c-1.543-.434-1.54-.428-7.203-20.995-7.683-27.905-10.434-42.833-9.469-51.38.976-8.642 5.502-26.325 8.97-35.043.434-1.32 4.459-7.641 4.459-7.641s.722 9.517 1.044 20.636c.492 17.02.819 20.838 2.066 24.145.814 2.16 1.833 3.88 2.264 3.82.43-.06 1.313-1.59 1.961-3.398.649-1.809 1.735-5.362 2.896-6.69 7.2-8.232 24.389-8.514 30.708.435 2.183 3.091 2.411 5.834 2.206 11.011-.179 3.045-.036 5.536.317 5.536 1.37 0 6.8-8.98 7.709-13.434 2.263-11.105-7.115-32.483-7.115-32.483s1.703 1.466 4.664 4.455c4.898 4.943 10.331 15.492 12.946 22.177 3.094 9.24 3.47 16.68.198 23.624-3.288 6.98-11.01 12.824-13.014 19.142-1.434 4.859.387 12.242 5.95 24.122 1.88 4.016 3.418 8.081 3.418 9.034 0 1.553-.422 1.779-4.11 2.195-5.311.6-49.096 1.23-50.865.732z"/>
</svg>
