<?xml version="1.0" encoding="UTF-8" standalone="no"?>
<svg
   xmlns:dc="http://purl.org/dc/elements/1.1/"
   xmlns:cc="http://creativecommons.org/ns#"
   xmlns:rdf="http://www.w3.org/1999/02/22-rdf-syntax-ns#"
   xmlns:svg="http://www.w3.org/2000/svg"
   xmlns="http://www.w3.org/2000/svg"
   xmlns:sodipodi="http://sodipodi.sourceforge.net/DTD/sodipodi-0.dtd"
   xmlns:inkscape="http://www.inkscape.org/namespaces/inkscape"
   width="900pt"
   height="506.25pt"
   viewBox="0 0 899.99999 506.25001"
   version="1.1"
   id="svg12"
   sodipodi:docname="Banner.svg"
   inkscape:version="1.0 (4035a4fb49, 2020-05-01)"
   inkscape:export-filename="C:\Users\61413\Unley Park Baptist\Unley Park Baptist - Resources - upbcdata\Streaming Tools\ABCC\Banner.png"
   inkscape:export-xdpi="163.72"
   inkscape:export-ydpi="163.72">
  <metadata
     id="metadata16">
    <rdf:RDF>
      <cc:Work
         rdf:about="">
        <dc:format>image/svg+xml</dc:format>
        <dc:type
           rdf:resource="http://purl.org/dc/dcmitype/StillImage" />
        <dc:title></dc:title>
      </cc:Work>
    </rdf:RDF>
  </metadata>
  <sodipodi:namedview
     inkscape:document-rotation="0"
     pagecolor="#ffffff"
     bordercolor="#666666"
     borderopacity="1"
     objecttolerance="10"
     gridtolerance="10"
     guidetolerance="10"
     inkscape:pageopacity="0"
     inkscape:pageshadow="2"
     inkscape:window-width="1920"
     inkscape:window-height="1009"
     id="namedview14"
     showgrid="false"
     inkscape:zoom="0.671875"
     inkscape:cx="398.7555"
     inkscape:cy="391.11043"
     inkscape:window-x="-8"
     inkscape:window-y="-8"
     inkscape:window-maximized="1"
     inkscape:current-layer="svg12"
     fit-margin-top="0"
     fit-margin-left="0"
     fit-margin-right="0"
     fit-margin-bottom="0" />
  <defs
     id="defs2" />
  <rect
     y="0"
     x="0"
     height="506.25"
     width="900"
     id="rect877"
     style="fill:#000000;fill-opacity:1;stroke:none;stroke-width:1.05813;stroke-opacity:1" />
  <rect
     y="251.97403"
     x="0.082767561"
     height="254.27597"
     width="899.91724"
     id="rect879"
     style="fill:#cc0001;fill-opacity:1;stroke:#cc0001;stroke-width:0.751703;stroke-opacity:1" />
  <circle
     r="135.71111"
     cy="253.125"
     cx="450"
     id="path875"
     style="fill:#ffff01;fill-opacity:1;stroke:none;stroke-width:0.856806;stroke-opacity:1" />
  <g
     transform="matrix(0.53592205,0,0,0.53592205,366.48996,186.40657)"
     id="g871">
    <path
       style="stroke:#cc0001;stroke-width:0.823574;stroke-miterlimit:4;stroke-dasharray:none;stroke-opacity:1"
       sodipodi:nodetypes="cc"
       d="M 32.613193,106.57506 C 113.50023,124.38565 234.31598,79.398798 248.27934,69.578131"
       stroke-linejoin="bevel"
       stroke-linecap="square"
       stroke-width="0.24"
       stroke="#ef0360"
       fill="none"
       id="shape0" />
    <path
       style="stroke:#cc0001;stroke-width:0.772229;stroke-miterlimit:4;stroke-dasharray:none;stroke-opacity:1"
       sodipodi:nodetypes="cc"
       d="M 34.363755,117.96602 C 113.74857,128.15145 242.90659,100.69409 258.09709,95.679196"
       stroke-linejoin="bevel"
       stroke-linecap="square"
       stroke-width="0.24"
       stroke="#ef0360"
       fill="none"
       id="shape01" />
    <path
       style="stroke:#cc0001;stroke-width:0.794448;stroke-miterlimit:4;stroke-dasharray:none;stroke-opacity:1"
       sodipodi:nodetypes="cc"
       d="M 31.314033,126.323 C 115.16099,134.68258 254.39945,113.7088 268.55397,107.82185"
       stroke-linejoin="bevel"
       stroke-linecap="square"
       stroke-width="0.24"
       stroke="#ef0360"
       fill="none"
       id="path6" />
    <path
       style="fill:none;fill-opacity:1;stroke:#cc0001;stroke-opacity:1"
       sodipodi:nodetypes="cc"
       d="M 158.08131,9.3314672 157.85165,149.35959"
       stroke-miterlimit="2"
       stroke-linejoin="miter"
       stroke-linecap="square"
       stroke-width="18.6324"
       stroke="#d00000"
       fill="none"
       id="shape1" />
    <path
       style="fill:none;fill-opacity:1;stroke:#cc0001;stroke-opacity:1"
       sodipodi:nodetypes="cc"
       d="M 220.47666,43.601464 93.724503,44.66343"
       stroke-miterlimit="2"
       stroke-linejoin="miter"
       stroke-linecap="square"
       stroke-width="14.6398"
       stroke="#d00000"
       fill="none"
       id="shape02" />
    <path
       style="fill:#cc0001;fill-opacity:1"
       sodipodi:nodetypes="cccccccccccccccccccccccccccccccccccccc"
       d="m 135.4572,55.043832 c -3.93836,-0.468534 -9.15834,6.155405 -9.54552,12.486319 -0.1291,1.927224 0.34458,5.908724 1.10352,10.925449 -7.92627,5.044852 -17.06355,10.122742 -17.73001,17.909018 -0.72925,7.123742 4.29351,16.790232 18.06382,18.068762 2.11345,0.19871 4.03115,0.19064 5.74885,0.0195 0.81433,5.31097 1.30065,9.48727 1.13374,11.3775 -0.5936,7.45856 -13.68407,6.90328 -13.94168,2.55694 2.75166,0.20148 5.07636,-1.22126 5.24989,-3.24866 0.17727,-2.07118 -1.95922,-3.98622 -4.78988,-4.26717 -1.55635,-0.15447 -2.98732,0.22159 -3.99671,0.93146 -0.0231,0.0142 -0.0502,0.0282 -0.0725,0.0425 -0.22674,0.14832 -0.42287,0.33278 -0.61917,0.54481 -0.64324,0.68013 -1.11053,1.70303 -1.26044,3.21469 -0.53419,6.2409 20.11199,12.34079 21.16539,0.034 0.17446,-1.65258 -0.413,-5.94914 -1.33943,-11.38148 15.32523,-2.58491 12.99362,-19.675277 -0.78069,-21.121817 -1.06936,-0.09777 -2.10738,-0.106574 -3.11434,-0.01591 -0.54195,-2.91796 -1.06351,-5.749711 -1.50826,-8.348227 5.56394,-3.344923 10.56157,-7.893362 11.24806,-17.122197 0.58272,-6.618537 -1.89684,-12.218295 -5.01459,-12.605439 z m 0.38304,6.496698 c 1.79639,0.04768 3.10725,1.43435 2.87248,4.177163 -0.25857,4.725009 -5.00057,8.403299 -10.58198,12.022021 -0.30612,-2.316025 -0.4769,-4.184717 -0.41925,-5.277412 0.77819,-7.344246 5.13427,-11.001283 8.12875,-10.921772 z m -7.70137,23.863885 c 0.42623,2.530716 0.89222,5.198715 1.3637,7.885865 -9.33023,1.534288 -14.52589,10.65785 -1.96076,16.21865 -7.45024,-5.82688 -3.05946,-11.413336 2.71267,-11.889846 0.96994,5.506216 1.91264,10.937996 2.64922,15.624096 -1.56617,0.25239 -3.37379,0.3099 -5.46254,0.11368 -5.22007,-0.5181 -15.43761,-4.05089 -14.62816,-13.50775 0.67797,-7.920791 8.25692,-10.414804 15.32588,-14.444657 z m 3.42556,12.172197 c 0.2285,0.01224 0.47453,0.04111 0.70375,0.06987 9.49577,0.942449 12.10695,12.634828 2.12734,15.298308 -0.81397,-4.66619 -1.82661,-10.02445 -2.83109,-15.368153 z"
       stroke-linejoin="bevel"
       stroke-linecap="square"
       stroke-width="0"
       stroke="#000000"
       stroke-opacity="0"
       fill="#d00000"
       id="path26" />
    <path
       style="fill:#cc0001;fill-opacity:1;stroke:#ff0000;stroke-opacity:1"
       sodipodi:nodetypes="cccccccccccccccccccccccccccccccccccccc"
       d="m 191.83869,81.587717 c -2.91358,-0.254163 -6.64308,4.032201 -6.81326,8.076554 -0.0601,1.231297 0.3619,3.76662 1.01316,6.959318 -5.75454,3.309476 -12.40174,6.653891 -12.75137,11.630051 -0.40802,4.5542 3.47306,10.6656 13.65351,11.32472 1.56256,0.10271 2.97694,0.0757 4.24077,-0.0531 0.69751,3.37989 1.13239,6.03929 1.04377,7.24742 -0.30193,4.76632 -9.96773,4.56096 -10.23699,1.79045 2.03333,0.0972 3.72211,-0.83717 3.81315,-2.13292 0.093,-1.32363 -1.5178,-2.52135 -3.61086,-2.66841 -1.15082,-0.0809 -2.19945,0.17541 -2.93105,0.63979 -0.0169,0.009 -0.0364,0.0185 -0.0527,0.0281 -0.16454,0.0972 -0.30585,0.21706 -0.44676,0.35459 -0.46208,0.44143 -0.78811,1.09948 -0.87112,2.06572 -0.28024,3.98868 15.05985,7.64623 15.61248,-0.21922 0.0985,-1.05654 -0.41309,-3.79164 -1.19546,-7.24754 11.25699,-1.82404 9.22549,-12.70336 -0.96094,-13.46962 -0.79057,-0.0502 -1.55641,-0.0441 -2.29748,0.0254 -0.45291,-1.8559 -0.88925,-3.65699 -1.26474,-5.31013 4.04312,-2.197885 7.64651,-5.157249 7.98452,-11.054269 0.30922,-4.230119 -1.62186,-7.775284 -3.92858,-7.986844 z m 0.40093,4.141381 c 1.32599,0.01 2.31819,0.879939 2.19503,2.632893 -0.10465,3.018112 -3.53527,5.419328 -7.58626,7.792032 -0.26804,-1.474409 -0.42807,-2.664938 -0.40547,-3.36288 0.44011,-4.695445 3.58648,-7.078702 5.7967,-7.062045 z m -5.2455,15.315952 c 0.3605,1.61005 0.7529,3.30733 1.14966,5.01666 -6.85413,1.08527 -10.52018,6.96647 -1.1506,10.37196 -5.60162,-3.63346 -2.46476,-7.2484 1.78416,-7.61815 0.81576,3.50267 1.61017,6.95808 2.23891,9.94009 -1.15061,0.17892 -2.48293,0.2362 -4.02717,0.13464 -3.85981,-0.27119 -11.46083,-2.40917 -11.03619,-8.45314 0.35569,-5.06219 5.90055,-6.74003 11.04123,-9.39206 z m 2.74864,7.7285 c 0.16881,0.005 0.35076,0.0208 0.52043,0.0366 7.02135,0.49333 9.16059,7.92485 1.84804,9.73812 -0.68547,-2.96839 -1.53005,-6.37609 -2.36847,-9.77468 z"
       stroke-linejoin="bevel"
       stroke-linecap="square"
       stroke-width="0"
       stroke="#000000"
       stroke-opacity="0"
       fill="#d00000"
       id="path261" />
    <path
       style="fill:#cc0001;fill-opacity:1;stroke:#ff0000;stroke-width:0.00431405;stroke-opacity:1"
       id="path841"
       d="m 236.63281,94.058096 c -4.04866,0.73724 -10.42382,1.90045 -14.16803,2.58035 l -6.80229,1.24102 v 16.526564 c 0,10.21082 -0.0182,16.55522 -0.0455,16.59208 -0.0363,0.0492 -0.0591,0.0409 -0.16813,-0.0492 -0.3635,-0.30718 -0.96331,-0.55293 -1.69488,-0.69219 -0.40442,-0.0778 -0.62251,-0.0943 -1.45406,-0.0943 -0.88606,-0.004 -1.01784,0.004 -1.40862,0.0943 -1.64946,0.37272 -3.20349,1.20417 -4.5894,2.46157 -1.55403,1.40897 -2.37647,3.0391 -2.30377,4.56683 0.0546,1.11814 0.53618,1.99875 1.44042,2.65406 1.56766,1.12636 3.85328,1.15502 6.29338,0.0737 2.5855,-1.14272 4.4258,-3.19881 4.81658,-5.39006 0.0591,-0.31948 0.0682,-2.5435 0.0682,-16.61257 0,-12.94682 0.0136,-16.25623 0.0591,-16.28899 0.0272,-0.0205 6.00256,-1.12224 13.27287,-2.445204 10.8464,-1.97825 13.22289,-2.39604 13.2547,-2.35098 0.0546,0.0778 0.05,28.957304 -0.004,29.035124 -0.0363,0.0492 -0.0591,0.045 -0.16812,-0.0328 -0.66342,-0.4792 -1.36773,-0.69629 -2.55825,-0.79049 -0.99058,-0.0737 -1.75396,0.004 -2.67638,0.27441 -0.90424,0.26624 -2.02205,0.82736 -2.88995,1.44991 -0.48166,0.34815 -1.33138,1.09359 -1.67217,1.4745 -1.98116,2.21174 -2.22654,4.71837 -0.60889,6.25429 0.5589,0.52835 1.23595,0.87649 2.10839,1.08539 0.568,0.13105 1.72216,0.13105 2.42193,-0.004 2.70818,-0.52017 5.15738,-2.18716 6.34789,-4.32107 0.21356,-0.38501 0.4544,-0.99937 0.59071,-1.49905 0.0772,-0.29082 0.0818,-1.17141 0.0909,-18.73011 l 0.0136,-18.418804 -0.0999,0.0039 c -0.0591,0.0039 -3.41705,0.61027 -7.4657,1.35161 z" />
    <path
       sodipodi:nodetypes="ccccccccccccccccc"
       style="fill:#cc0001;fill-opacity:1;stroke:none;stroke-width:0.00568396"
       id="path857"
       d="m 93.869935,114.99918 -0.017,26.87946 -0.2558,-0.19894 c -1.097,-0.86965 -2.7795,-1.27889 -5.2577,-1.28458 -1.2277,0 -1.9098,0.0966 -3.0693,0.43198 -2.8193,0.81281 -5.8374,2.7681 -7.8041,5.06442 -1.2334,1.43804 -2.0405,2.97839 -2.3759,4.51875 -0.1591,0.73323 -0.1478,2.07464 0.028,2.75672 0.6139,2.39862 2.6658,4.09244 5.5135,4.55284 0.6309,0.10231 1.978,0.11368 2.734,0.0227 2.6373,-0.3183 5.5589,-1.57446 7.7586,-3.33648 2.3247,-1.86434 3.7343,-3.97309 4.3027,-6.43424 l 0.1308,-0.54566 c 0.28552,-2.82715 0.30168,-55.700714 0.0503,-59.101844 0,0 0.10051,-0.0958 -0.034,-0.21031 -0.54972,-0.05574 -1.12933,0 -1.6938,0 z" />
    <path
       d="m 102.57823,106.51615 c -2.812165,0.51209 -7.240305,1.32004 -9.840995,1.7923 l -4.72482,0.862 v 11.47921 c 0,7.09235 -0.0127,11.49912 -0.0316,11.52472 -0.0252,0.0342 -0.0411,0.0284 -0.11679,-0.0342 -0.25249,-0.21337 -0.6691,-0.38407 -1.17725,-0.48079 -0.2809,-0.054 -0.43239,-0.0655 -1.00998,-0.0655 -0.61545,-0.003 -0.70698,0.003 -0.97841,0.0655 -1.1457,0.25889 -2.22512,0.8364 -3.18776,1.70978 -1.07941,0.97866 -1.65068,2.11094 -1.60018,3.17209 0.038,0.77664 0.37243,1.38832 1.00051,1.84348 1.08889,0.78237 2.67645,0.80227 4.37132,0.0512 1.79587,-0.79372 3.07412,-2.22186 3.34556,-3.74389 0.0411,-0.22191 0.0474,-1.76669 0.0474,-11.53895 0,-8.99275 0.009,-11.29144 0.0411,-11.3142 0.0189,-0.0142 4.16932,-0.7795 9.21923,-1.69842 7.533815,-1.37407 9.184505,-1.66427 9.206605,-1.63297 0.0379,0.054 0.0347,20.11351 -0.003,20.16755 -0.0252,0.0342 -0.0411,0.0313 -0.11677,-0.0228 -0.4608,-0.33286 -0.95002,-0.48365 -1.77695,-0.54907 -0.68804,-0.0512 -1.21828,0.003 -1.85898,0.19059 -0.62808,0.18494 -1.40449,0.57469 -2.00734,1.0071 -0.33454,0.24183 -0.92477,0.7596 -1.16146,1.02418 -1.376105,1.53626 -1.546545,3.27733 -0.422945,4.34417 0.388215,0.36699 0.858495,0.60881 1.464475,0.75391 0.39453,0.091 1.19621,0.091 1.68226,-0.003 1.88108,-0.36131 3.58227,-1.51919 4.40919,-3.00138 0.14834,-0.26743 0.31562,-0.69416 0.4103,-1.04123 0.0537,-0.202 0.0568,-0.81365 0.0631,-13.00977 l 0.009,-12.79355 -0.0694,0.003 c -0.0411,0.003 -2.37345,0.42389 -5.18561,0.93882 z"
       id="path841-1"
       style="fill:#cc0001;fill-opacity:1;stroke:#ff0000;stroke-width:0.0029965;stroke-opacity:1" />
    <path
       d="m 206.38408,85.088961 -0.009,12.341097 -0.12905,-0.09134 c -0.55333,-0.399284 -1.40201,-0.587171 -2.65206,-0.589783 -0.61928,0 -0.96333,0.04433 -1.54821,0.198327 -1.4221,0.373188 -2.94448,1.270915 -3.93651,2.325213 -0.62215,0.66025 -1.02926,1.367465 -1.19844,2.074685 -0.0802,0.33665 -0.0746,0.95253 0.0141,1.26568 0.30968,1.10128 1.34469,1.87896 2.78112,2.09034 0.31823,0.047 0.99772,0.0522 1.37906,0.0105 1.33031,-0.14615 2.80401,-0.72288 3.91357,-1.53188 1.17261,-0.85596 1.88364,-1.82415 2.17035,-2.95413 l 0.066,-0.250525 c 0.14403,-1.29802 0.15218,-25.573719 0.0254,-27.135271 0,0 0.0507,-0.04398 -0.0171,-0.09656 -0.27729,-0.02557 -0.56965,0 -0.85438,0 z"
       id="path857-0"
       style="fill:#cc0001;fill-opacity:1;stroke:#ff0000;stroke-width:0.00273535;stroke-opacity:1"
       sodipodi:nodetypes="ccccccccccccccccc" />
    <path
       sodipodi:nodetypes="ssssssccssssssssssscsscss"
       id="path980"
       d="m 208.59328,241.22687 c 0,-0.50044 2.2832,-6.11667 5.07378,-12.48053 10.07266,-22.97042 9.88219,-26.03653 -2.77806,-44.72536 -6.28839,-9.28283 -11.44617,-19.46977 -16.74713,-33.07673 -2.43632,-6.25378 -5.24259,-13.16403 -6.23609,-15.35612 -0.99353,-2.19208 -2.05187,-4.92559 -2.35185,-6.07447 -0.48725,-1.86604 -0.4105,-1.98668 0.71972,-1.13097 0.69585,0.52691 2.62154,3.07391 4.27928,5.6601 9.47938,14.78817 29.67731,35.36452 41.74689,42.5291 2.71772,1.61326 3.09259,1.28953 2.09027,-1.80528 -1.44806,-4.47119 -1.06301,-8.80927 1.04942,-11.82291 2.83301,-4.04166 5.84046,-6.37483 10.98311,-8.5207 3.91166,-1.63218 5.35293,-1.86128 10.17742,-1.61758 6.61331,0.33403 10.61759,1.90038 14.72181,5.7587 9.08942,8.54481 6.33809,20.68831 -6.14339,27.11478 -2.27276,1.17022 -4.13229,2.227 -4.13229,2.34841 0,0.12143 2.02569,1.24799 4.50156,2.50353 3.25298,1.6496 9.60442,6.9831 22.89918,19.22919 10.11874,9.32056 19.6031,17.74693 21.0764,18.72525 3.58145,2.37827 2.65984,3.46981 -2.92065,3.45918 -10.63584,-0.0208 -17.44195,-2.88566 -29.64335,-12.62432 -7.48566,-5.97471 -13.33942,-5.54696 -14.09615,4.23566 l -0.46949,6.06959 -11.43836,3.32136 c -22.16366,6.43563 -42.36203,10.38361 -42.36203,8.28012 z"
       style="fill:#cc0001;fill-opacity:1;stroke-width:0.747771" />
    <path
       sodipodi:nodetypes="ccsssccssssssssssccssccc"
       id="path978"
       d="m 52.220155,232.81934 c -0.433525,-0.73903 -0.808125,-2.89148 -0.832428,-4.78325 -0.05315,-4.15398 -1.438145,-8.03238 -3.232079,-9.05202 -1.768657,-1.00529 -4.828293,-1.73992 -12.937932,4.41193 -10.220622,7.75317 -16.874672,11.65282 -27.4532704,10.89239 L 0,233.73025 c 17.417801,-6.78354 28.20297,-26.94628 42.436354,-35.99303 2.538617,-1.42955 9.778454,-4.63724 9.778454,-4.91119 0,-0.27379 -0.946304,-0.89142 -2.102877,-1.37219 -10.227111,-4.25124 -15.131652,-15.837 -10.443966,-24.67144 3.887743,-7.32689 13.693528,-12.49131 22.01109,-11.59259 4.234331,0.45753 11.242736,3.45879 13.395481,5.73643 4.66087,4.93131 7.015026,12.70136 5.432502,17.93037 -0.466964,1.54291 -0.688027,2.95219 -0.491266,3.13171 0.745856,0.68046 12.138474,-7.97507 18.866767,-14.33396 9.558721,-9.03389 16.909341,-17.53189 23.298431,-26.93513 2.95309,-4.34625 5.64897,-7.90229 5.99085,-7.90229 0.34186,0 -0.0228,1.84809 -0.81126,4.10687 -0.78806,2.25877 -2.02074,5.87461 -2.73925,8.03517 -4.36377,13.12142 -15.82968,35.93304 -24.11019,47.96764 -6.31516,9.1782 -6.803735,10.29479 -6.803735,15.54854 0,6.44805 1.154248,10.60414 6.261753,22.54653 1.529532,5.52686 6.717162,12.40406 6.717162,12.40406 -15.163908,-1.87394 -37.931039,-7.46699 -54.466145,-10.60641 z"
       style="fill:#cc0001;fill-opacity:1;stroke-width:0.747771" />
    <path
       sodipodi:nodetypes="sscccsscscscsscscscsssss"
       id="path945"
       d="m 138.02634,248.80562 c -1.54265,-0.4339 -1.54039,-0.42727 -7.20307,-20.99505 -7.6825,-27.90415 -10.43356,-42.83237 -9.46849,-51.37977 0.97566,-8.64162 5.5014,-26.32464 8.96874,-35.043 0.43432,-1.31909 4.45937,-7.64101 4.45937,-7.64101 0,0 0.72265,9.5168 1.04435,20.63611 0.49244,17.0207 0.81905,20.83801 2.06597,24.14526 0.81458,2.16057 1.83337,3.87923 2.26395,3.81926 0.43056,-0.0601 1.31323,-1.58887 1.96145,-3.39759 0.64823,-1.80869 1.73442,-5.36196 2.89615,-6.69027 7.19921,-8.23141 24.38815,-8.51347 30.70725,0.43552 2.18286,3.09137 2.41155,5.83427 2.20604,11.0113 -0.17876,3.04444 -0.0361,5.53534 0.31706,5.53534 1.36978,0 6.80112,-8.97935 7.70896,-13.43405 2.26297,-11.10425 -7.11515,-32.48285 -7.11515,-32.48285 0,0 1.70366,1.46624 4.66476,4.45487 4.89752,4.94305 10.33104,15.49235 12.94561,22.17761 3.09413,9.23909 3.46944,16.67952 0.1981,23.62363 -3.28818,6.97985 -11.01071,12.82369 -13.01421,19.14166 -1.43417,4.85916 0.38665,12.24195 5.94929,24.12254 1.88045,4.01619 3.41899,8.08134 3.41899,9.03366 0,1.55367 -0.42199,1.77907 -4.11011,2.19532 -5.31133,0.59942 -49.09579,1.22908 -50.86499,0.73151 z"
       style="fill:#cc0001;fill-opacity:1;stroke-width:0.747771" />
  </g>
</svg>
